<?xml version="1.0" encoding="utf-8"?>
<!-- Generator: Adobe Illustrator 16.0.0, SVG Export Plug-In . SVG Version: 6.00 Build 0)  -->
<!DOCTYPE svg PUBLIC "-//W3C//DTD SVG 1.1//EN" "http://www.w3.org/Graphics/SVG/1.1/DTD/svg11.dtd">
<svg version="1.1" id="Layer_1" xmlns="http://www.w3.org/2000/svg" xmlns:xlink="http://www.w3.org/1999/xlink" x="0px" y="0px"
	 width="1002.438px" height="418.292px" viewBox="0 0 1002.438 418.292" enable-background="new 0 0 1002.438 418.292"
	 xml:space="preserve">
<g>
	<g>
		<g>
			<g>
				<g>
					<g>
						<g>
							<g>
								<path fill="#6FB4E3" d="M505.389,104.093c0,5.357,4.338,9.698,9.689,9.698c5.349,0,9.691-4.34,9.691-9.698
									c0-5.349-4.343-9.689-9.691-9.689C509.727,94.404,505.389,98.744,505.389,104.093z M510.938,104.093
									c0-2.282,1.856-4.132,4.141-4.132c2.287,0,4.135,1.85,4.135,4.132c0,2.29-1.848,4.141-4.135,4.141
									C512.794,108.233,510.938,106.383,510.938,104.093z"/>
							</g>
						</g>
					</g>
				</g>
			</g>
		</g>
	</g>
	<g>
		<g>
			<g>
				<g>
					<g>
						<g>
							<path fill="#6FB4E3" d="M439.408,104.093c0,5.357,4.34,9.698,9.695,9.698c5.352,0,9.689-4.34,9.689-9.698
								c0-5.349-4.337-9.689-9.689-9.689C443.748,94.404,439.408,98.744,439.408,104.093z M444.965,104.093
								c0-2.282,1.856-4.132,4.138-4.132s4.135,1.85,4.135,4.132c0,2.29-1.853,4.141-4.135,4.141S444.965,106.383,444.965,104.093z"
								/>
						</g>
					</g>
				</g>
			</g>
		</g>
	</g>
	<g>
		<g>
			<g>
				<g>
					<g>
						<g>
							<g>
								<path fill="#6FB4E3" d="M433.654,86.178h66.28v20.982h-9.545c0.226-0.988,0.36-2.009,0.36-3.067
									c0-7.396-6.006-13.407-13.416-13.407c-7.404,0-13.41,6.011-13.41,13.407c0,0.094,0.006,0.188,0.006,0.279h-1.469
									c0.003-0.091,0.021-0.182,0.021-0.279c0-7.396-6.008-13.407-13.413-13.407c-7.408,0-13.414,6.011-13.414,13.407
									c0,1.059,0.141,2.079,0.367,3.067h-2.367c-1.469,0-2.662-1.203-2.662-2.666V88.847
									C430.992,87.377,432.186,86.178,433.654,86.178z"/>
							</g>
						</g>
					</g>
				</g>
			</g>
		</g>
	</g>
	<g>
		<g>
			<g>
				<g>
					<g>
						<g>
							<path fill="#6FB4E3" d="M467.683,104.093c0,5.357,4.337,9.698,9.692,9.698c5.352,0,9.686-4.34,9.686-9.698
								c0-5.349-4.334-9.689-9.686-9.689C472.021,94.404,467.683,98.744,467.683,104.093z M473.237,104.093
								c0-2.282,1.854-4.132,4.138-4.132c2.281,0,4.132,1.85,4.132,4.132c0,2.29-1.851,4.141-4.132,4.141
								C475.091,108.233,473.237,106.383,473.237,104.093z"/>
						</g>
					</g>
				</g>
			</g>
		</g>
	</g>
	<g>
		<g>
			<g>
				<g>
					<path fill="#6FB4E3" d="M492.46,92.823v14.337h9.249c-0.226-0.994-0.358-2.009-0.358-3.067c0-7.563,6.161-13.721,13.721-13.721
						c7.574,0,13.732,6.158,13.732,13.721c0,1.059-0.132,2.073-0.357,3.067h18.941c0.516,0,0.938-0.425,0.938-0.944v-4.923
						c0-0.517-0.422-0.941-0.938-0.941h-2.335V88.172l-10.892-10.921l-9.489-13.29c-1.308-1.833-3.653-1.718-4.798-1.724h-20.562
						v30.586H492.46z M510.011,69.296c0-1.117,0.892-2,1.997-2h7.076c0,0,0.845-0.149,1.707,0.255
						c0.873,0.407,1.378,1.287,1.378,1.287c0.581,0.766,5.419,8.366,5.419,8.366c0.593,0.927,0.428,1.73-0.68,1.73h-14.9
						c-1.105,0-1.997-0.909-1.997-2.006V69.296z"/>
				</g>
			</g>
		</g>
	</g>
</g>
<g>
	<g>
		<g>
			<g>
				<path fill="#EA1C33" d="M476.217,45.396v15.038c0,0.753,0.616,1.369,1.378,1.369h15.029c0.76,0,1.372-0.616,1.372-1.369V45.396
					c0-0.756-0.612-1.375-1.372-1.375h-15.029C476.833,44.021,476.217,44.64,476.217,45.396z"/>
			</g>
		</g>
	</g>
</g>
<g>
	<g>
		<g>
			<g>
				<path fill="#EA1C33" d="M476.217,66.043v15.038c0,0.76,0.616,1.369,1.378,1.369h15.029c0.76,0,1.372-0.609,1.372-1.369V66.043
					c0-0.753-0.612-1.372-1.372-1.372h-15.029C476.833,64.671,476.217,65.29,476.217,66.043z"/>
			</g>
		</g>
	</g>
</g>
<g>
	<g>
		<g>
			<g>
				<path fill="#EA1C33" d="M455.569,66.043v15.038c0,0.76,0.615,1.369,1.369,1.369h15.038c0.756,0,1.372-0.609,1.372-1.369V66.043
					c0-0.753-0.616-1.372-1.372-1.372h-15.038C456.185,64.671,455.569,65.29,455.569,66.043z"/>
			</g>
		</g>
	</g>
</g>
<g>
	<g>
		<rect x="483.284" y="46.238" fill="#FFFFFF" width="3.651" height="5.936"/>
	</g>
</g>
<g>
	<g>
		<rect x="483.284" y="66.885" fill="#FFFFFF" width="3.651" height="5.936"/>
	</g>
</g>
<g>
	<g>
		<rect x="462.634" y="66.885" fill="#FFFFFF" width="3.653" height="5.936"/>
	</g>
</g>
<g>
	<g>
		<g>
			<g>
				<path fill="#EA1C33" d="M434.921,66.043v15.038c0,0.76,0.616,1.369,1.373,1.369h15.038c0.756,0,1.373-0.609,1.373-1.369V66.043
					c0-0.753-0.616-1.372-1.373-1.372h-15.038C435.537,64.671,434.921,65.29,434.921,66.043z"/>
			</g>
		</g>
	</g>
</g>
<g>
	<g>
		<rect x="441.983" y="66.885" fill="#FFFFFF" width="3.66" height="5.936"/>
	</g>
</g>
<g>
	<g>
		<g>
			<g>
				<path fill="#EA1C33" d="M455.578,45.399v15.032c0,0.756,0.612,1.372,1.372,1.372h15.032c0.762,0,1.372-0.616,1.372-1.372V45.399
					c0-0.762-0.61-1.372-1.372-1.372H456.95C456.19,44.027,455.578,44.637,455.578,45.399z"/>
			</g>
		</g>
	</g>
</g>
<g>
	<g>
		<rect x="462.64" y="46.235" fill="#FFFFFF" width="3.653" height="5.938"/>
	</g>
</g>
<path fill="#EA1C33" d="M722.193,58.176v7.064c0,0.625-0.703,1.123-1.583,1.123c-0.44,0-0.833-0.123-1.126-0.326
	c-0.282-0.199-0.464-0.486-0.464-0.797v-7.064c0-0.625,0.716-1.132,1.59-1.132c0.439,0,0.839,0.126,1.12,0.334
	C722.023,57.578,722.193,57.862,722.193,58.176z"/>
<path fill="#EA1C33" d="M713.097,69.724v7.067c0,0.625-0.715,1.129-1.592,1.129c-0.443,0-0.842-0.123-1.123-0.334
	c-0.294-0.199-0.464-0.484-0.464-0.794v-7.067c0-0.625,0.704-1.129,1.587-1.129c0.442,0,0.835,0.123,1.129,0.331
	C712.915,69.128,713.097,69.41,713.097,69.724z"/>
<path fill="#EA1C33" d="M708.575,60.399v2.557c0,0.666,0.434,1.197,0.962,1.197h0.539c0.546,0,0.968-0.531,0.968-1.197v-2.557
	c0-0.666-0.422-1.2-0.968-1.2h-0.539C709.009,59.199,708.575,59.733,708.575,60.399z M706.634,64.108v-4.81
	c0-1.243,1.114-2.255,2.481-2.255h1.39c1.378,0,2.498,1.012,2.498,2.255v4.81c0,1.252-1.12,2.255-2.498,2.255h-1.39
	C707.748,66.363,706.634,65.36,706.634,64.108z"/>
<path fill="#EA1C33" d="M708.575,51.053c0,0.663,0.434,1.197,0.962,1.197h0.539c0.546,0,0.968-0.534,0.968-1.197v-2.56
	c0-0.663-0.422-1.196-0.968-1.196h-0.539c-0.528,0-0.962,0.534-0.962,1.196V51.053z M706.634,52.208v-4.807
	c0-1.249,1.114-2.258,2.481-2.258h1.39c1.378,0,2.498,1.009,2.498,2.258v4.807c0,1.246-1.12,2.252-2.498,2.252h-1.39
	C707.748,54.46,706.634,53.455,706.634,52.208z"/>
<path fill="#EA1C33" d="M703.379,72.023c0-0.657-0.439-1.199-0.979-1.199h-0.534c-0.533,0-0.967,0.542-0.967,1.199v2.563
	c0,0.66,0.434,1.2,0.967,1.2h0.534c0.54,0,0.979-0.54,0.979-1.2V72.023z M705.326,70.932v4.807c0,1.246-1.126,2.258-2.499,2.258
	h-1.384c-1.373,0-2.492-1.012-2.492-2.258v-4.807c0-1.249,1.119-2.264,2.492-2.264h1.384
	C704.2,68.668,705.326,69.683,705.326,70.932z"/>
<path fill="#EA1C33" d="M702.241,58.176v7.064c0,0.625-0.71,1.123-1.596,1.123c-0.434,0-0.836-0.123-1.126-0.326
	c-0.287-0.199-0.467-0.486-0.467-0.797v-7.064c0-0.625,0.713-1.132,1.593-1.132c0.44,0,0.839,0.126,1.132,0.334
	C702.059,57.578,702.241,57.862,702.241,58.176z"/>
<path fill="#EA1C33" d="M702.206,46.314v7.064c0,0.625-0.716,1.132-1.584,1.132c-0.439,0-0.839-0.126-1.132-0.334
	c-0.293-0.199-0.473-0.484-0.473-0.797v-7.064c0-0.619,0.722-1.123,1.604-1.123c0.435,0,0.83,0.123,1.12,0.334
	C702.023,45.725,702.206,46.009,702.206,46.314z"/>
<path fill="#EA1C33" d="M692.789,71.976c0-0.66-0.437-1.202-0.977-1.202h-0.539c-0.533,0-0.968,0.542-0.968,1.202v2.563
	c0,0.663,0.435,1.2,0.968,1.2h0.539c0.54,0,0.977-0.537,0.977-1.2V71.976z M688.37,75.694v-4.812c0-1.246,1.114-2.252,2.487-2.252
	h1.378c1.384,0,2.493,1.006,2.493,2.252v4.812c0,1.244-1.109,2.255-2.493,2.255h-1.378C689.484,77.95,688.37,76.938,688.37,75.694z"
	/>
<path fill="#EA1C33" d="M690.306,48.446v2.563c0,0.66,0.435,1.2,0.968,1.2h0.539c0.54,0,0.977-0.54,0.977-1.2v-2.563
	c0-0.666-0.437-1.196-0.977-1.196h-0.539C690.74,47.25,690.306,47.78,690.306,48.446z M688.37,52.162v-4.81
	c0-1.246,1.114-2.258,2.487-2.258h1.378c1.384,0,2.493,1.012,2.493,2.258v4.81c0,1.246-1.109,2.258-2.493,2.258h-1.378
	C689.484,54.419,688.37,53.408,688.37,52.162z"/>
<path fill="#EA1C33" d="M693.18,58.176v7.064c0,0.625-0.722,1.123-1.602,1.123c-0.434,0-0.832-0.123-1.126-0.326
	c-0.287-0.199-0.469-0.486-0.469-0.797v-7.064c0-0.625,0.722-1.132,1.595-1.132c0.446,0,0.839,0.126,1.127,0.334
	C692.998,57.578,693.18,57.862,693.18,58.176z"/>
<path fill="#EA1C33" d="M684.136,69.78v7.067c0,0.622-0.707,1.123-1.587,1.123c-0.442,0-0.835-0.126-1.129-0.326
	c-0.293-0.211-0.463-0.487-0.463-0.797V69.78c0-0.625,0.704-1.132,1.592-1.132c0.438,0,0.842,0.126,1.123,0.334
	C683.954,69.182,684.136,69.466,684.136,69.78z"/>
<path fill="#EA1C33" d="M684.136,46.27v7.067c0,0.625-0.707,1.123-1.587,1.123c-0.442,0-0.835-0.126-1.129-0.326
	c-0.293-0.202-0.463-0.484-0.463-0.797V46.27c0-0.625,0.704-1.126,1.592-1.126c0.438,0,0.842,0.123,1.123,0.331
	C683.954,45.678,684.136,45.959,684.136,46.27z"/>
<path fill="#EA1C33" d="M676.658,70.935v4.81c0,1.246-1.114,2.258-2.493,2.258h-1.372c-1.385,0-2.498-1.012-2.498-2.258v-4.81
	c0-1.246,1.113-2.258,2.498-2.258h1.372C675.544,68.677,676.658,69.689,676.658,70.935z M674.723,74.595v-2.566
	c0-0.663-0.434-1.196-0.974-1.196h-0.534c-0.539,0-0.982,0.534-0.982,1.196v2.566c0,0.66,0.443,1.197,0.982,1.197h0.534
	C674.289,75.792,674.723,75.254,674.723,74.595z"/>
<path fill="#EA1C33" d="M672.232,50.962c0,0.666,0.443,1.2,0.982,1.2h0.534c0.54,0,0.974-0.534,0.974-1.2v-2.557
	c0-0.663-0.434-1.205-0.974-1.205h-0.534c-0.539,0-0.982,0.542-0.982,1.205V50.962z M676.658,47.305v4.812
	c0,1.241-1.114,2.252-2.493,2.252h-1.372c-1.385,0-2.498-1.012-2.498-2.252v-4.812c0-1.24,1.113-2.252,2.498-2.252h1.372
	C675.544,45.053,676.658,46.065,676.658,47.305z"/>
<path fill-rule="evenodd" clip-rule="evenodd" fill="#6FB4E3" d="M49.842,56.598c0,1.258,0,2.566,0,3.909
	c-0.364,0.067-0.692,0.123-1.076,0.19c-0.023,0.293-0.065,0.572-0.065,0.845c0,3.305,0.012,6.61-0.012,9.915
	c-0.003,0.566,0.144,0.909,0.698,1.161c5.531,2.507,11.044,5.038,16.562,7.563c0.17,0.076,0.346,0.123,0.669,0.24
	c0-2.912,0-5.712,0-8.735c6.498,2.967,12.797,5.838,19.272,8.797c0-2.977,0-5.786,0-8.736c0.475,0.188,0.792,0.299,1.094,0.437
	c5.352,2.443,10.724,4.836,16.032,7.355c1.838,0.876,3.654,1.487,5.695,1.243c0.836-0.105,1.138,0.179,1.132,1.08
	c-0.032,8.179-0.029,16.357,0,24.539c0.003,0.836-0.234,1.056-1.064,1.056c-23.85-0.023-47.697-0.023-71.55,0
	c-0.815,0-1.073-0.203-1.07-1.047c0.032-8.179,0.032-16.363,0-24.542c-0.003-0.883,0.272-1.124,1.123-1.103
	c1.918,0.041,1.918,0.003,1.918-1.958c0-5.634,0-11.264,0-16.897c0-0.398,0-0.797,0-1.211c-0.466-0.067-0.804-0.114-1.255-0.182
	c0-1.203-0.021-2.387,0.026-3.572c0.006-0.179,0.328-0.49,0.504-0.49c3.739-0.009,7.481,0.021,11.22,0.047
	C49.722,56.501,49.748,56.534,49.842,56.598z M45.03,93.114c1.601,0,3.205-0.015,4.809,0.006c0.545,0.006,0.815-0.17,0.803-0.751
	c-0.023-0.944-0.015-1.889-0.003-2.83c0.003-0.483-0.141-0.768-0.695-0.765c-3.273,0.009-6.54,0.009-9.812-0.003
	c-0.551-0.003-0.698,0.258-0.689,0.753c0.021,0.912,0.035,1.827-0.006,2.736c-0.029,0.66,0.22,0.88,0.871,0.865
	C41.88,93.093,43.455,93.114,45.03,93.114z M58.859,93.114c1.634,0,3.267,0,4.897,0.003c0.443,0.003,0.815-0.027,0.804-0.628
	c-0.018-1.035,0.029-2.073-0.035-3.105c-0.009-0.211-0.387-0.578-0.599-0.581c-3.296-0.035-6.589-0.021-9.885-0.029
	c-0.49-0.003-0.663,0.199-0.654,0.677c0.021,0.968,0.029,1.944-0.006,2.915c-0.018,0.583,0.217,0.763,0.774,0.757
	C55.725,93.099,57.293,93.114,58.859,93.114z M72.962,93.114c1.601,0,3.205-0.015,4.806,0.006c0.563,0.009,0.792-0.191,0.774-0.766
	c-0.029-0.938-0.029-1.883,0-2.827c0.018-0.575-0.217-0.762-0.78-0.759c-3.231,0.015-6.469,0.015-9.704,0.003
	c-0.519-0.003-0.739,0.188-0.724,0.715c0.023,0.944,0.029,1.886-0.006,2.827c-0.023,0.622,0.226,0.824,0.827,0.81
	C69.757,93.096,71.361,93.114,72.962,93.114z M86.938,88.773c-1.598,0-3.199,0.021-4.8-0.006c-0.592-0.009-0.859,0.17-0.833,0.803
	c0.035,0.936,0.023,1.88,0.003,2.821c-0.012,0.516,0.179,0.728,0.713,0.728c3.261-0.012,6.527-0.015,9.789,0
	c0.557,0.003,0.689-0.258,0.677-0.751c-0.021-0.877-0.044-1.76,0.009-2.636c0.041-0.721-0.182-1-0.944-0.974
	C90.014,88.809,88.478,88.773,86.938,88.773z M100.885,88.773c-1.604,0-3.211,0.018-4.812-0.006
	c-0.598-0.009-0.862,0.196-0.844,0.815c0.029,0.912,0.023,1.821,0.006,2.733c-0.012,0.537,0.161,0.807,0.75,0.804
	c3.24-0.015,6.475-0.012,9.718,0c0.519,0,0.739-0.185,0.727-0.716c-0.023-0.944-0.032-1.886,0.006-2.83
	c0.024-0.627-0.234-0.821-0.835-0.809C104.029,88.794,102.454,88.773,100.885,88.773z"/>
<path fill-rule="evenodd" clip-rule="evenodd" fill="#EA1C33" d="M51.863,43.728c-0.182-2.742,1.777-3.645,3.739-4.51
	c-0.842-2.146-0.648-2.607,1.997-4.85c-0.023-0.05-0.029-0.126-0.067-0.162c-1.848-1.774-1.716-3.483,0.425-4.944
	c1.569-1.071,3.331-1.414,5.208-1.308c0.411,0.021,0.835-0.138,1.252-0.217c0.032-0.006,0.05-0.032,0.085-0.041
	c1.448-0.346,3.043-0.431,4.311-1.117c1.337-0.722,2.575-1.528,4.117-1.733c1.542-0.208,2.997-0.018,4.369,0.771
	c0.393,0.226,0.883,0.299,1.332,0.434c2.167,0.637,2.88,1.9,2.264,4.126c1.173,0.543,2.475,1.062,2.615,2.616
	c0.135,1.48-0.891,2.334-1.988,3.199c0.915,1.337,0.287,2.765,0.056,4.088c-0.279,1.583-1.686,2.404-3.129,2.856
	c-1.08,0.34-1.848,0.815-2.569,1.757c-1.258,1.639-3.188,2.208-5.22,2.132c-1.074-0.038-1.704,0.211-2.446,1.132
	c-1.677,2.088-4.117,2.525-6.68,2.141c-0.722-0.108-1.293-0.073-1.956,0.255c-0.751,0.372-1.592,0.698-2.414,0.742
	c-1.783,0.1-3.182,0.862-4.575,1.909c-2.117,1.589-4.542,1.959-7.062,1.047c-2.393-0.868-2.856-3.138-0.921-4.78
	c1.138-0.971,2.273-1.766,2.994-3.229C48.35,44.519,50.156,44.118,51.863,43.728z"/>
<path fill="#6FB4E3" d="M898.576,53.323c-0.164-0.739-0.521-1.487-0.984-2.223v-0.003c0.164-0.964,0.258-1.958,0.258-2.973
	c0-4.029-0.311-7.736-1.593-10.636v-3.417c2.49,3.44,3.035,8.46,3.035,14.053C899.292,49.927,899.034,51.668,898.576,53.323z"/>
<path fill="#6FB4E3" d="M897.592,51.097c-0.382-0.598-0.839-1.182-1.335-1.745v-0.003V37.487c1.282,2.9,1.593,6.607,1.593,10.636
	C897.85,49.138,897.756,50.132,897.592,51.097z"/>
<path fill="#6FB4E3" d="M898.576,53.323c-0.533,1.924-1.334,3.715-2.319,5.331v-3.223c0.607-1.358,1.064-2.807,1.335-4.332
	C898.055,51.836,898.412,52.583,898.576,53.323z"/>
<path fill="#6FB4E3" d="M888.677,83.504l-0.927-2.93l-0.827-2.663l-0.728-2.323l-0.732-2.322v-0.003l-1.082-3.445l10.196-5.308
	v-0.006c9.419,2.009,22.119,7.311,22.119,21.348v17.173c0,0,1.651,8.583-32.084,8.583h-2.634c-33.735,0-32.084-8.583-32.084-8.583
	V85.853c0-15.557,15.58-20.38,25.029-21.882l9.457,5.848l-2.531,8.094l-1.965,6.255v0.003l-1.953,6.246l-1.343,4.275l0.519,0.678
	l1.364,1.771l1.413,1.848l1.666,2.167l1.486,1.944l1.344,1.75l7.803-10.158l-0.809-2.595l-0.886-2.804l-0.944-3.023L888.677,83.504z
	"/>
<path fill="#6FB4E3" d="M896.257,37.487c-0.595-1.367-1.41-2.56-2.501-3.525v-2.334c1,0.68,1.826,1.507,2.501,2.443V37.487z"/>
<path fill="#6FB4E3" d="M896.257,49.349c-0.794-0.897-1.68-1.73-2.501-2.431v-0.006v-12.95c1.091,0.965,1.906,2.158,2.501,3.525
	V49.349z"/>
<path fill="#6FB4E3" d="M893.756,59.563c0.968-1.223,1.824-2.616,2.501-4.132v3.223c-0.747,1.226-1.592,2.343-2.501,3.337V59.563z"
	/>
<path fill="#6FB4E3" d="M891.668,63.964c-0.88-0.135-1.707-0.243-2.457-0.331c1.601-0.953,3.184-2.346,4.545-4.07v2.428
	C893.09,62.721,892.389,63.384,891.668,63.964z"/>
<polygon fill="#EA1C33" points="890.489,89.292 891.375,92.096 891.363,92.096 883.04,103.093 883.037,103.099 881.551,101.154 "/>
<polygon fill="#EA1C33" points="888.677,83.504 889.545,86.269 889.539,86.269 879.885,98.987 878.472,97.14 "/>
<polygon fill="#EA1C33" points="886.923,77.912 887.75,80.574 877.107,95.369 876.589,94.691 877.932,90.416 "/>
<polygon fill="#EA1C33" points="879.885,84.167 881.85,77.912 885.463,73.267 886.195,75.589 "/>
<path fill="#6FB4E3" d="M884.753,66.897c-2.281,0-4.924-1.205-7.325-3.267c0.956-0.117,1.789-0.188,2.48-0.238
	c1.648,1.05,3.332,1.642,4.845,1.642c1.396,0,2.93-0.498,4.452-1.401h0.006c0.75,0.088,1.577,0.196,2.457,0.331
	C889.381,65.824,886.905,66.897,884.753,66.897z"/>
<path fill="#6FB4E3" d="M893.756,46.912c-1.561-1.332-2.88-2.205-2.88-2.205c-7.524,4.68-15.911,4.135-19.214,3.671
	c-0.003-0.085-0.003-0.17-0.003-0.255c0-9.337,1.687-16.906,13.094-16.906c4.17,0,7.041,1.009,9.003,2.745V46.912z"/>
<path fill="#6FB4E3" d="M870.217,48.124c0-10.373,1.865-18.774,14.536-18.774c3.965,0,6.874,0.821,9.003,2.278v2.334
	c-1.962-1.736-4.833-2.745-9.003-2.745c-11.407,0-13.094,7.569-13.094,16.906c0,0.085,0,0.17,0.003,0.255
	C870.741,48.244,870.217,48.124,870.217,48.124z"/>
<path fill="#6FB4E3" d="M877.428,63.63c-3.93-3.39-7.211-9.064-7.211-15.507c0,0,0.524,0.12,1.445,0.255
	c0.094,6.625,4.035,12.325,8.246,15.014C879.217,63.443,878.384,63.513,877.428,63.63z"/>
<circle fill="#FFFFFF" stroke="#EA1C33" stroke-miterlimit="10" cx="916.483" cy="98.36" r="28.029"/>
<path fill="#6FB4E3" d="M931.191,94.594c0,0.428,0,0.856,0,1.282c-0.24,0.537-0.498,1.064-0.709,1.616
	c-0.104,0.267-0.193,0.595-0.141,0.868c0.199,1.041,0.138,2.023-0.402,2.962c-0.126,0.214-0.179,0.51-0.152,0.759
	c0.108,1.076-0.079,2.067-0.684,2.988c-0.193,0.299-0.337,0.677-0.352,1.029c-0.076,2.255-1.378,3.8-3.619,3.988
	c-2.753,0.229-5.495,0.077-8.164-0.789c-1.577-0.507-3.166-0.997-4.768-1.428c-0.892-0.246-1.179-0.507-1.185-1.442
	c-0.006-1.411,0-2.815,0-4.229c0-2.267,0.006-4.531-0.006-6.794c0-0.578,0.138-1.135,0.728-1.278
	c0.861-0.214,1.401-0.789,1.929-1.405c0.953-1.124,1.818-2.323,2.827-3.39c1.003-1.056,1.496-2.278,1.789-3.674
	c0.188-0.895,0.598-1.753,0.985-2.595c0.111-0.244,0.48-0.49,0.747-0.51c2.033-0.138,3.695,0.604,4.115,2.833
	c0.316,1.713,0.111,3.355-0.739,4.9c-0.237,0.437-0.435,0.897-0.704,1.458c0.34,0,0.546,0,0.751,0c1.431,0,2.862,0.015,4.293-0.003
	c1.132-0.009,2.047,0.449,2.698,1.337C930.761,93.527,930.939,94.087,931.191,94.594z"/>
<path fill-rule="evenodd" clip-rule="evenodd" fill="#6FB4E3" d="M902.351,94.853c0.319-0.616,0.818-0.83,1.517-0.815
	c1.53,0.038,3.073,0.012,4.609,0.018c0.95,0,1.35,0.361,1.35,1.288c0.012,3.73,0.012,7.466,0,11.196c0,0.927-0.405,1.293-1.35,1.296
	c-1.536,0.012-3.079-0.026-4.609,0.015c-0.698,0.021-1.191-0.217-1.517-0.818C902.351,102.97,902.351,98.911,902.351,94.853z
	 M906.958,104.386c-0.006-0.604-0.537-1.141-1.132-1.159c-0.628-0.009-1.176,0.548-1.168,1.191c0.01,0.633,0.505,1.135,1.133,1.146
	C906.436,105.571,906.97,105.037,906.958,104.386z"/>
<path fill-rule="evenodd" clip-rule="evenodd" fill="#FFFFFF" d="M906.958,104.386c0.012,0.651-0.522,1.185-1.167,1.179
	c-0.628-0.012-1.123-0.513-1.133-1.146c-0.008-0.643,0.54-1.2,1.168-1.191C906.421,103.245,906.952,103.782,906.958,104.386z"/>
<path fill="#6FB4E3" d="M314.572,108.286c1.378,0,2.499-1.117,2.499-2.496V61.496h-84.672v44.295c0,1.378,1.114,2.496,2.492,2.496
	h10.021V66.396h59.644v41.891H314.572z"/>
<polygon fill="#6FB4E3" points="322.78,59 322.78,51.044 280.532,36.525 268.931,36.525 226.686,51.044 226.686,59 232.398,59 
	317.071,59 "/>
<path fill="#EA1C33" d="M251.348,90.225c-0.692,0-1.249,0.557-1.249,1.249v14.343c0,0.689,0.557,1.247,1.249,1.247h18.51
	c0.692,0,1.249-0.557,1.249-1.247V91.474c0-0.692-0.557-1.249-1.249-1.249h-7.548v6.48h-3.941v-6.48H251.348z"/>
<path fill="#EA1C33" d="M278.608,90.225c-0.687,0-1.247,0.557-1.247,1.249v14.343c0,0.689,0.56,1.247,1.247,1.247h18.516
	c0.689,0,1.249-0.557,1.249-1.247V91.474c0-0.692-0.56-1.249-1.249-1.249h-7.548v6.48h-3.941v-6.48H278.608z"/>
<path fill="#EA1C33" d="M271.107,71.598c0-0.689-0.557-1.249-1.249-1.249h-7.548v6.481h-3.941v-6.481h-7.021
	c-0.692,0-1.249,0.56-1.249,1.249v14.343c0,0.689,0.557,1.249,1.249,1.249h18.51c0.692,0,1.249-0.56,1.249-1.249V71.598z"/>
<path fill="#EA1C33" d="M298.373,71.598c0-0.689-0.56-1.249-1.249-1.249h-7.548v6.481h-3.941v-6.481h-7.026
	c-0.687,0-1.247,0.56-1.247,1.249v14.343c0,0.689,0.56,1.249,1.247,1.249h18.516c0.689,0,1.249-0.56,1.249-1.249V71.598z"/>
<g>
	<path fill="#EA1C33" d="M407.811,306.8c-118.786-9.853-199.872-41.57-246.974-66.44c-51.181-27.023-73.864-51.369-74.805-52.392
		l3.316-3.05c0.906,0.985,93.285,98.681,318.832,117.396L407.811,306.8z"/>
</g>
<g>
	<path fill="#EA1C33" d="M402.523,278.731c-75.148-16.032-122.103-91.353-122.569-92.109l3.842-2.357
		c0.455,0.745,46.436,74.438,119.666,90.062L402.523,278.731z"/>
</g>
<g>
	<path fill="#EA1C33" d="M564.484,278.754l-0.68-4.451c0.709-0.108,71.742-11.877,123.577-91.095l3.771,2.469
		c-27.671,42.286-60.57,65.327-83.298,77.21C583.158,275.798,565.235,278.64,564.484,278.754z"/>
</g>
<g>
	<path fill="#EA1C33" d="M566.317,307.803l-0.335-4.492c2.285-0.17,229.304-18.158,316.753-121.329l3.437,2.915
		C797.503,289.505,568.619,307.633,566.317,307.803z"/>
</g>
<polygon fill="#EA1C33" points="570.021,285.194 570.021,267.822 555.464,276.508 "/>
<polygon fill="#EA1C33" points="570.021,314.976 570.021,297.604 555.464,306.291 "/>
<polygon fill="#EA1C33" points="402.318,285.194 402.318,267.822 416.875,276.508 "/>
<polygon fill="#EA1C33" points="402.318,314.976 402.318,297.604 416.875,306.291 "/>
<polygon fill="#EA1C33" points="277.699,193.724 292.608,186.053 277.916,177.279 "/>
<polygon fill="#EA1C33" points="82.173,193.724 97.762,185.701 82.398,176.528 "/>
<polygon fill="#EA1C33" points="693.15,193.724 678.922,186.399 692.945,178.029 "/>
<polygon fill="#EA1C33" points="886.738,192.9 871.807,185.217 886.521,176.431 "/>
<g>
	<rect x="483.694" y="185.566" fill="#EA1C33" width="4.505" height="43.166"/>
</g>
<polygon fill="#EA1C33" points="476.454,191.006 495.668,191.006 486.164,176.132 "/>
<polygon fill="#EA1C33" points="478.897,224.067 493.225,224.067 486.137,235.157 "/>
<path fill="#EA1C33" d="M545.142,253.952v85.077c0,0.845-0.545,1.533-1.243,1.533h-116.66c-0.692,0-1.237-0.688-1.237-1.533v-85.077
	c0-0.842,0.545-1.525,1.237-1.525h116.66C544.597,252.426,545.142,253.11,545.142,253.952z M541.004,324.373v-68.339H430.147v68.339
	H541.004z M490.492,331.897c0-2.722-2.205-4.921-4.921-4.921c-2.721,0-4.921,2.199-4.921,4.921c0,2.716,2.2,4.924,4.921,4.924
	C488.287,336.821,490.492,334.613,490.492,331.897z"/>
<path fill="#6FB4E3" d="M513.301,267.277c2.434,0,4.416,1.982,4.416,4.434c0,2.429-1.982,4.41-4.416,4.41
	c-2.451,0-4.425-1.981-4.425-4.41C508.876,269.259,510.85,267.277,513.301,267.277z M515.031,271.71c0-0.968-0.777-1.736-1.73-1.736
	c-0.962,0-1.736,0.769-1.736,1.736c0,0.953,0.774,1.713,1.736,1.713C514.254,273.423,515.031,272.664,515.031,271.71z"/>
<path fill="#6FB4E3" d="M512.459,278.227l-7.199,12.615c-0.801-1.009-1.865-1.777-3.067-2.214l6.851-12.021
	C509.999,277.435,511.148,278.015,512.459,278.227z"/>
<path fill="#EA1C33" d="M505.656,355.421c0,0,1.146,4.173-3.035,4.173s-9.49,0-9.49,0h-14.504c0,0-5.319,0-9.501,0
	c-4.17,0-3.032-4.173-3.032-4.173l3.387-2.1l0.83,1.343v1.484h31.14v-1.484l0.824-1.331L505.656,355.421z"/>
<path fill="#6FB4E3" d="M500.187,290.473c2.435,0,4.417,1.97,4.417,4.416c0,2.445-1.982,4.416-4.417,4.416
	c-2.451,0-4.425-1.971-4.425-4.416C495.762,292.443,497.735,290.473,500.187,290.473z M501.905,294.889
	c0-0.95-0.769-1.728-1.719-1.728c-0.97,0-1.735,0.777-1.735,1.728c0,0.953,0.765,1.73,1.735,1.73
	C501.137,296.62,501.905,295.842,501.905,294.889z"/>
<polygon fill="#EA1C33" points="497.688,350.483 502.275,353.333 501.451,354.665 470.311,354.665 469.48,353.322 474.064,350.483 
	474.064,342.888 485.571,342.888 486.188,342.888 497.688,342.888 "/>
<path fill="#6FB4E3" d="M492.322,279.98l4.712,8.868c-1.199,0.536-2.202,1.431-2.909,2.51l-3.604-6.75l-10.977,18.475
	c-0.404,0.674-1.164,1.003-1.906,0.892c-0.85,0.129-1.697-0.347-2.021-1.179l-3.906-10.188c1.276-0.288,2.428-0.944,3.314-1.848
	l2.933,7.624l10.99-18.48c0.355-0.609,1.006-0.927,1.654-0.909C491.296,278.977,491.961,279.33,492.322,279.98z"/>
<path fill="#6FB4E3" d="M470.398,281.631c2.446,0,4.425,1.979,4.425,4.416c0,2.443-1.979,4.426-4.425,4.426
	c-2.445,0-4.416-1.982-4.416-4.426C465.982,283.611,467.953,281.631,470.398,281.631z M472.117,286.047
	c0-0.953-0.774-1.709-1.719-1.709c-0.95,0-1.727,0.756-1.727,1.709c0,0.962,0.777,1.739,1.727,1.739
	C471.343,287.787,472.117,287.009,472.117,286.047z"/>
<path fill="#6FB4E3" d="M468.199,292.501l-14.252,25.583h-4.305l15.39-27.611C465.854,291.417,466.944,292.132,468.199,292.501z"/>
<path fill="#6FB4E3" d="M738.826,35.229v62.204c0,0.616-0.398,1.12-0.908,1.12H652.62c-0.507,0-0.905-0.504-0.905-1.12V35.229
	c0-0.616,0.398-1.117,0.905-1.117h85.298C738.428,34.112,738.826,34.613,738.826,35.229z M735.801,86.718V36.751h-81.055v49.967
	H735.801z M698.869,92.219c0-1.991-1.613-3.598-3.599-3.598c-1.991,0-3.599,1.607-3.599,3.598c0,1.985,1.607,3.598,3.599,3.598
	C697.256,95.817,698.869,94.205,698.869,92.219z"/>
<path fill="#6FB4E3" d="M709.953,109.418c0,0,0.839,3.05-2.217,3.05s-6.938,0-6.938,0h-10.604c0,0-3.889,0-6.947,0
	c-3.05,0-2.22-3.05-2.22-3.05l2.48-1.534l0.604,0.979v1.085h22.768v-1.085l0.604-0.974L709.953,109.418z"/>
<polygon fill="#6FB4E3" points="704.129,105.808 707.484,107.89 706.88,108.864 684.112,108.864 683.508,107.884 686.857,105.808 
	686.857,100.254 695.271,100.254 695.719,100.254 704.129,100.254 "/>
<g>
	<g>
		<path fill="#414042" d="M246.757,373.817c5.616,0,9.497,3.625,9.497,8.935c0,5.284-3.931,8.935-9.675,8.935h-7.505v-17.869
			H246.757z M243.617,388.061h3.242c2.783,0,4.774-2.145,4.774-5.284c0-3.166-2.093-5.335-4.978-5.335h-3.038V388.061z"/>
		<path fill="#414042" d="M258.656,391.686v-17.869h4.544v17.869H258.656z"/>
		<path fill="#414042" d="M282.576,382.598v6.969c-1.915,1.354-4.927,2.323-7.429,2.323c-5.438,0-9.547-3.932-9.547-9.139
			c0-5.183,4.212-9.088,9.854-9.088c2.655,0,5.463,1.021,7.301,2.654l-2.553,3.089c-1.302-1.199-3.115-1.939-4.774-1.939
			c-2.936,0-5.182,2.297-5.182,5.284c0,3.038,2.272,5.335,5.233,5.335c0.919,0,2.093-0.332,3.165-0.868v-4.62H282.576z"/>
		<path fill="#414042" d="M285.744,391.686v-17.869h4.544v17.869H285.744z"/>
		<path fill="#414042" d="M302.134,377.467v14.219h-4.544v-14.219h-5.335v-3.677h15.266v3.677H302.134z"/>
		<path fill="#414042" d="M311.606,388.393l-1.302,3.293h-4.671l7.709-17.869h4.671l7.531,17.869h-4.85l-1.277-3.293H311.606z
			 M315.538,378.334l-2.604,6.612h5.157L315.538,378.334z"/>
		<path fill="#414042" d="M339.332,387.882v3.804h-12.125v-17.869h4.544v14.065H339.332z"/>
		<path fill="#414042" d="M353.629,387.882v3.804h-12.125v-17.869h4.544v14.065H353.629z"/>
		<path fill="#414042" d="M365.017,391.686h-4.519v-5.642l-6.611-12.228h4.544l4.314,7.785l4.212-7.785h4.544l-6.484,12.1V391.686z"
			/>
		<path fill="#414042" d="M394.657,376.675l-2.629,3.114c-1.174-1.429-2.91-2.322-4.493-2.322c-2.833,0-4.978,2.246-4.978,5.182
			c0,2.987,2.145,5.259,4.978,5.259c1.506,0,3.242-0.816,4.493-2.093l2.655,2.808c-1.915,1.966-4.749,3.268-7.378,3.268
			c-5.386,0-9.394-3.957-9.394-9.19c0-5.156,4.11-9.036,9.547-9.036C390.113,373.664,392.871,374.837,394.657,376.675z"/>
		<path fill="#414042" d="M414.597,382.726c0,5.207-4.136,9.164-9.675,9.164c-5.514,0-9.649-3.932-9.649-9.164
			c0-5.208,4.135-9.062,9.649-9.062C410.461,373.664,414.597,377.543,414.597,382.726z M399.918,382.751
			c0,3.012,2.323,5.335,5.055,5.335c2.757,0,4.952-2.323,4.952-5.335c0-3.013-2.195-5.284-4.952-5.284
			C402.215,377.467,399.918,379.739,399.918,382.751z"/>
		<path fill="#414042" d="M429.482,391.686l-8.22-11.003v11.003h-4.263v-17.869h4.008l8.246,11.027v-11.027h4.237v17.869H429.482z"
			/>
		<path fill="#414042" d="M449.549,391.686l-8.22-11.003v11.003h-4.263v-17.869h4.008l8.246,11.027v-11.027h4.237v17.869H449.549z"
			/>
		<path fill="#414042" d="M461.678,377.39v3.549h8.526v3.573h-8.526v3.6h9.726v3.574h-14.27v-17.869h13.989v3.573H461.678z"/>
		<path fill="#414042" d="M489.914,376.675l-2.629,3.114c-1.174-1.429-2.91-2.322-4.493-2.322c-2.833,0-4.978,2.246-4.978,5.182
			c0,2.987,2.145,5.259,4.978,5.259c1.506,0,3.242-0.816,4.493-2.093l2.655,2.808c-1.915,1.966-4.749,3.268-7.378,3.268
			c-5.386,0-9.394-3.957-9.394-9.19c0-5.156,4.11-9.036,9.547-9.036C485.37,373.664,488.127,374.837,489.914,376.675z"/>
		<path fill="#414042" d="M500.28,377.467v14.219h-4.544v-14.219h-5.335v-3.677h15.266v3.677H500.28z"/>
		<path fill="#414042" d="M512.152,377.39v3.549h8.526v3.573h-8.526v3.6h9.726v3.574h-14.27v-17.869h13.989v3.573H512.152z"/>
		<path fill="#414042" d="M532.5,373.817c5.616,0,9.496,3.625,9.496,8.935c0,5.284-3.931,8.935-9.675,8.935h-7.505v-17.869H532.5z
			 M529.36,388.061h3.242c2.782,0,4.773-2.145,4.773-5.284c0-3.166-2.093-5.335-4.978-5.335h-3.038V388.061z"/>
		<path fill="#414042" d="M564.234,375.603l-1.71,3.549c-1.889-1.098-4.263-1.863-5.718-1.863c-1.175,0-1.966,0.434-1.966,1.302
			c0,3.089,9.445,1.327,9.445,7.786c0,3.573-3.166,5.463-7.148,5.463c-2.986,0-6.05-1.123-8.169-2.859l1.762-3.497
			c1.838,1.608,4.595,2.681,6.459,2.681c1.43,0,2.322-0.536,2.322-1.558c0-3.165-9.445-1.276-9.445-7.607
			c0-3.293,2.834-5.387,7.123-5.387C559.768,373.612,562.396,374.404,564.234,375.603z"/>
		<path fill="#414042" d="M582.846,384.181c0,4.723-3.14,7.709-8.143,7.709c-5.029,0-8.246-2.986-8.246-7.709v-10.364h4.544v10.364
			c0,2.425,1.558,3.905,3.728,3.905c2.145,0,3.6-1.48,3.6-3.905v-10.364h4.518V384.181z"/>
		<path fill="#414042" d="M593.903,373.817c4.569,0,7.198,2.246,7.198,6.229c0,4.187-2.629,6.611-7.198,6.611h-3.242v5.029h-4.544
			v-17.869H593.903z M590.661,383.083h3.012c1.991,0,3.141-0.996,3.141-2.885c0-1.864-1.149-2.809-3.141-2.809h-3.012V383.083z"/>
		<path fill="#414042" d="M611.264,373.817c4.569,0,7.198,2.246,7.198,6.229c0,4.187-2.629,6.611-7.198,6.611h-3.242v5.029h-4.544
			v-17.869H611.264z M608.021,383.083h3.012c1.991,0,3.141-0.996,3.141-2.885c0-1.864-1.149-2.809-3.141-2.809h-3.012V383.083z"/>
		<path fill="#414042" d="M632.965,387.882v3.804h-12.126v-17.869h4.544v14.065H632.965z"/>
		<path fill="#414042" d="M644.353,391.686h-4.519v-5.642l-6.612-12.228h4.544l4.314,7.785l4.212-7.785h4.544l-6.483,12.1V391.686z"
			/>
		<path fill="#414042" d="M673.993,376.675l-2.63,3.114c-1.174-1.429-2.91-2.322-4.493-2.322c-2.833,0-4.978,2.246-4.978,5.182
			c0,2.987,2.145,5.259,4.978,5.259c1.507,0,3.242-0.816,4.493-2.093l2.655,2.808c-1.915,1.966-4.748,3.268-7.378,3.268
			c-5.387,0-9.395-3.957-9.395-9.19c0-5.156,4.11-9.036,9.548-9.036C669.449,373.664,672.206,374.837,673.993,376.675z"/>
		<path fill="#414042" d="M688.035,391.686v-6.943h-7.403v6.943h-4.544v-17.869h4.544v7.352h7.403v-7.352h4.544v17.869H688.035z"/>
		<path fill="#414042" d="M700.214,388.393l-1.302,3.293h-4.672l7.71-17.869h4.671l7.531,17.869h-4.851l-1.276-3.293H700.214z
			 M704.146,378.334l-2.604,6.612h5.156L704.146,378.334z"/>
		<path fill="#414042" d="M715.814,391.686v-17.869h4.544v17.869H715.814z"/>
		<path fill="#414042" d="M736.416,391.686l-8.221-11.003v11.003h-4.263v-17.869h4.008l8.245,11.027v-11.027h4.238v17.869H736.416z"
			/>
	</g>
</g>
<g>
	<path fill="#414042" d="M210.832,136.219v2.25h-8.852V123.75h2.481v12.469H210.832z"/>
	<path fill="#414042" d="M223.675,132.876c0,3.364-2.376,5.677-5.824,5.677c-3.47,0-5.846-2.313-5.846-5.677
		c0-3.385,2.376-5.677,5.846-5.677C221.299,127.199,223.675,129.491,223.675,132.876z M214.423,132.897
		c0,2.166,1.409,3.638,3.428,3.638c1.998,0,3.406-1.472,3.406-3.638c0-2.145-1.409-3.616-3.406-3.616
		C215.833,129.281,214.423,130.752,214.423,132.897z"/>
	<path fill="#414042" d="M236.288,138.469l-2.839-8.285l-2.838,8.285h-2.481l-4.121-11.186h2.481l2.902,8.789l2.817-8.789h2.502
		l2.838,8.789l2.86-8.789h2.46l-4.079,11.186H236.288z"/>
	<path fill="#414042" d="M250.115,138.469V123.75h2.481v14.719H250.115z"/>
	<path fill="#414042" d="M267.018,131.509v6.96H264.6v-6.287c0-1.682-1.009-2.712-2.691-2.712c-1.851,0.021-3.007,1.304-3.175,3.049
		v5.951h-2.418v-11.186h2.418v2.145c0.799-1.556,2.229-2.229,4.122-2.229C265.462,127.199,267.018,128.839,267.018,131.509z"/>
	<path fill="#414042" d="M272.481,138.469l-4.332-11.186h2.523l3.112,8.81l3.07-8.81h2.418l-4.29,11.186H272.481z"/>
	<path fill="#414042" d="M290.372,133.801h-8.453c0.379,1.724,1.704,2.796,3.47,2.796c1.219,0,2.334-0.462,3.154-1.303l1.283,1.367
		c-1.093,1.198-2.691,1.892-4.626,1.892c-3.448,0-5.719-2.292-5.719-5.656c0-3.385,2.334-5.677,5.656-5.698
		C289.068,127.199,290.666,129.764,290.372,133.801z M288.269,132.035c-0.084-1.808-1.282-2.902-3.112-2.902
		c-1.766,0-3.007,1.115-3.28,2.902H288.269z"/>
	<path fill="#414042" d="M303.593,131.509v6.96h-2.418v-6.287c0-1.682-1.009-2.712-2.691-2.712
		c-1.851,0.021-3.007,1.304-3.175,3.049v5.951h-2.418v-11.186h2.418v2.145c0.799-1.556,2.229-2.229,4.122-2.229
		C302.037,127.199,303.593,128.839,303.593,131.509z"/>
	<path fill="#414042" d="M313.156,137.754c-0.883,0.525-1.808,0.82-2.754,0.82c-1.682,0-3.133-0.967-3.133-3.259v-5.804h-1.577
		v-1.808h1.577v-3.07h2.397v3.07h3.301v1.808h-3.301v5.362c0,1.157,0.441,1.514,1.198,1.514c0.505,0,1.03-0.168,1.682-0.484
		L313.156,137.754z"/>
	<path fill="#414042" d="M325.875,132.876c0,3.364-2.376,5.677-5.824,5.677c-3.47,0-5.846-2.313-5.846-5.677
		c0-3.385,2.376-5.677,5.846-5.677C323.499,127.199,325.875,129.491,325.875,132.876z M316.623,132.897
		c0,2.166,1.409,3.638,3.428,3.638c1.998,0,3.406-1.472,3.406-3.638c0-2.145-1.409-3.616-3.406-3.616
		C318.032,129.281,316.623,130.752,316.623,132.897z"/>
	<path fill="#414042" d="M330.812,129.512c0.757-1.514,2.103-2.313,3.869-2.313v2.313c-2.25-0.126-3.68,1.199-3.869,3.112v5.845
		h-2.418v-11.186h2.418V129.512z"/>
	<path fill="#414042" d="M341.616,140.004c-0.694,1.766-1.955,2.649-3.637,2.649c-1.009,0-1.809-0.294-2.586-0.946l1.03-1.872
		c0.526,0.378,0.946,0.547,1.451,0.547c0.736,0,1.325-0.4,1.703-1.241l0.378-0.841l-4.625-11.018h2.502l3.343,8.474l3.112-8.474
		h2.418L341.616,140.004z"/>
	<path fill="#414042" d="M217.402,152.984l-1.451,1.808c-1.072-1.156-2.607-1.871-4.1-1.871c-2.943,0-5.256,2.271-5.256,5.172
		s2.313,5.193,5.256,5.193c1.472,0,2.986-0.673,4.1-1.745l1.472,1.64c-1.493,1.472-3.617,2.418-5.698,2.418
		c-4.311,0-7.654-3.259-7.654-7.485c0-4.184,3.385-7.401,7.738-7.401C213.89,150.713,215.972,151.576,217.402,152.984z"/>
	<path fill="#414042" d="M226.501,164.128c-0.799,0.988-2.082,1.472-3.701,1.472c-2.418,0-3.932-1.493-3.932-3.469
		c0-2.04,1.535-3.343,4.226-3.364h3.385v-0.336c0-1.409-0.904-2.25-2.67-2.25c-1.072,0-2.187,0.378-3.301,1.136l-0.988-1.682
		c1.556-0.925,2.691-1.409,4.815-1.409c2.88,0,4.5,1.472,4.521,3.932l0.021,7.338h-2.376V164.128z M226.48,161.563v-1.03h-3.028
		c-1.577,0-2.313,0.421-2.313,1.493c0,1.009,0.82,1.661,2.166,1.661C225.03,163.687,226.354,162.783,226.48,161.563z"/>
	<path fill="#414042" d="M234.529,156.538c0.757-1.514,2.103-2.312,3.869-2.312v2.312c-2.25-0.126-3.68,1.199-3.869,3.112v5.845
		h-2.418v-11.186h2.418V156.538z"/>
	<path fill="#414042" d="M242.812,156.538c0.757-1.514,2.103-2.312,3.869-2.312v2.312c-2.25-0.126-3.68,1.199-3.869,3.112v5.845
		h-2.418v-11.186h2.418V156.538z"/>
	<path fill="#414042" d="M253.616,167.03c-0.694,1.766-1.955,2.649-3.637,2.649c-1.009,0-1.809-0.294-2.586-0.946l1.03-1.872
		c0.525,0.378,0.946,0.547,1.451,0.547c0.736,0,1.325-0.399,1.703-1.241l0.378-0.841l-4.625-11.018h2.502l3.343,8.474l3.112-8.474
		h2.418L253.616,167.03z"/>
	<path fill="#414042" d="M262.99,151.113c0,0.841-0.61,1.451-1.409,1.451c-0.799,0-1.409-0.61-1.409-1.451
		c0-0.862,0.609-1.472,1.409-1.472C262.38,149.641,262.99,150.251,262.99,151.113z M260.383,165.495v-11.186h2.397v11.186H260.383z"
		/>
	<path fill="#414042" d="M277.055,158.535v6.96h-2.418v-6.287c0-1.682-1.009-2.712-2.691-2.712
		c-1.851,0.021-3.007,1.304-3.175,3.049v5.951h-2.418v-11.186h2.418v2.145c0.799-1.556,2.229-2.229,4.122-2.229
		C275.499,154.225,277.055,155.865,277.055,158.535z"/>
	<path fill="#414042" d="M290.381,164.402c0,3.217-2.292,5.235-5.803,5.235c-1.745,0-3.28-0.546-4.647-1.472l1.03-1.745
		c1.051,0.778,2.145,1.219,3.512,1.219c2.124,0,3.511-1.24,3.511-3.175v-1.409c-0.757,1.219-2.019,1.892-3.701,1.892
		c-3.028,0-5.046-2.187-5.046-5.404c0-3.154,1.998-5.298,4.962-5.319c1.724-0.021,3.007,0.673,3.785,1.892v-1.808h2.397V164.402z
		 M287.984,159.608c0-2.019-1.325-3.428-3.217-3.428c-1.914,0-3.238,1.43-3.259,3.428c0.021,2.019,1.325,3.448,3.259,3.448
		C286.66,163.056,287.984,161.626,287.984,159.608z"/>
	<path fill="#414042" d="M311.423,152.984l-1.451,1.808c-1.072-1.156-2.607-1.871-4.1-1.871c-2.943,0-5.256,2.271-5.256,5.172
		s2.313,5.193,5.256,5.193c1.472,0,2.986-0.673,4.1-1.745l1.472,1.64c-1.493,1.472-3.617,2.418-5.698,2.418
		c-4.311,0-7.654-3.259-7.654-7.485c0-4.184,3.385-7.401,7.738-7.401C307.912,150.713,309.993,151.576,311.423,152.984z"/>
	<path fill="#414042" d="M324.119,159.902c0,3.364-2.376,5.677-5.824,5.677c-3.47,0-5.846-2.313-5.846-5.677
		c0-3.385,2.376-5.677,5.846-5.677C321.743,154.225,324.119,156.517,324.119,159.902z M314.867,159.923
		c0,2.166,1.409,3.638,3.428,3.638c1.998,0,3.406-1.472,3.406-3.638c0-2.145-1.409-3.616-3.406-3.616
		C316.276,156.307,314.867,157.778,314.867,159.923z"/>
	<path fill="#414042" d="M333.892,155.339l-0.883,1.787c-0.988-0.61-2.229-0.988-3.217-0.988c-0.946,0-1.64,0.315-1.64,1.114
		c0,2.061,5.951,0.946,5.929,5.004c0,2.292-2.04,3.322-4.289,3.322c-1.64,0-3.385-0.546-4.5-1.556l0.862-1.724
		c0.967,0.862,2.523,1.388,3.743,1.388c1.03,0,1.829-0.357,1.829-1.199c0-2.292-5.887-1.009-5.866-5.046
		c0-2.271,1.977-3.238,4.121-3.238C331.39,154.204,332.883,154.625,333.892,155.339z"/>
	<path fill="#414042" d="M342.846,164.78c-0.883,0.525-1.808,0.82-2.754,0.82c-1.682,0-3.133-0.967-3.133-3.259v-5.804h-1.577
		v-1.808h1.577v-3.07h2.397v3.07h3.301v1.808h-3.301v5.362c0,1.157,0.441,1.514,1.198,1.514c0.505,0,1.03-0.168,1.682-0.484
		L342.846,164.78z"/>
</g>
<g>
	<path fill="#414042" d="M41.467,136.219v2.25h-8.852V123.75h2.481v12.469H41.467z"/>
	<path fill="#414042" d="M54.311,132.876c0,3.364-2.376,5.677-5.824,5.677c-3.47,0-5.846-2.313-5.846-5.677
		c0-3.385,2.376-5.677,5.846-5.677C51.935,127.199,54.311,129.491,54.311,132.876z M45.059,132.897c0,2.166,1.409,3.638,3.428,3.638
		c1.997,0,3.406-1.472,3.406-3.638c0-2.145-1.409-3.616-3.406-3.616C46.468,129.281,45.059,130.752,45.059,132.897z"/>
	<path fill="#414042" d="M66.923,138.469l-2.839-8.285l-2.838,8.285h-2.481l-4.121-11.186h2.481l2.902,8.789l2.817-8.789h2.502
		l2.838,8.789l2.86-8.789h2.46l-4.079,11.186H66.923z"/>
	<path fill="#414042" d="M92.862,125.958l-1.451,1.808c-1.072-1.156-2.607-1.871-4.1-1.871c-2.943,0-5.256,2.271-5.256,5.172
		s2.313,5.193,5.256,5.193c1.472,0,2.986-0.673,4.1-1.745l1.472,1.64c-1.493,1.472-3.617,2.418-5.698,2.418
		c-4.311,0-7.654-3.259-7.654-7.485c0-4.184,3.385-7.401,7.738-7.401C89.35,123.688,91.432,124.55,92.862,125.958z"/>
	<path fill="#414042" d="M105.557,132.876c0,3.364-2.376,5.677-5.824,5.677c-3.47,0-5.846-2.313-5.846-5.677
		c0-3.385,2.376-5.677,5.846-5.677C103.181,127.199,105.557,129.491,105.557,132.876z M96.305,132.897
		c0,2.166,1.409,3.638,3.428,3.638c1.998,0,3.406-1.472,3.406-3.638c0-2.145-1.409-3.616-3.406-3.616
		C97.714,129.281,96.305,130.752,96.305,132.897z"/>
	<path fill="#414042" d="M115.331,128.313l-0.883,1.787c-0.988-0.61-2.229-0.988-3.217-0.988c-0.946,0-1.64,0.315-1.64,1.115
		c0,2.061,5.951,0.946,5.929,5.004c0,2.292-2.04,3.322-4.289,3.322c-1.64,0-3.385-0.546-4.5-1.556l0.862-1.725
		c0.967,0.862,2.523,1.388,3.743,1.388c1.03,0,1.829-0.357,1.829-1.199c0-2.292-5.887-1.009-5.866-5.046
		c0-2.271,1.977-3.238,4.121-3.238C112.828,127.178,114.321,127.599,115.331,128.313z"/>
	<path fill="#414042" d="M124.284,137.754c-0.883,0.525-1.808,0.82-2.754,0.82c-1.682,0-3.133-0.967-3.133-3.259v-5.804h-1.577
		v-1.808h1.577v-3.07h2.397v3.07h3.301v1.808h-3.301v5.362c0,1.157,0.441,1.514,1.198,1.514c0.505,0,1.03-0.168,1.682-0.484
		L124.284,137.754z"/>
	<path fill="#414042" d="M29.673,150.776c3.701,0,5.825,1.83,5.825,5.025c0,3.322-2.124,5.257-5.825,5.257h-3.385v4.437h-2.481
		v-14.719H29.673z M26.288,158.83h3.28c2.271,0,3.553-0.967,3.553-2.965c0-1.934-1.282-2.859-3.553-2.859h-3.28V158.83z"/>
	<path fill="#414042" d="M40.225,156.538c0.757-1.514,2.103-2.312,3.869-2.312v2.312c-2.25-0.126-3.68,1.199-3.869,3.112v5.845
		h-2.418v-11.186h2.418V156.538z"/>
	<path fill="#414042" d="M56.707,159.902c0,3.364-2.376,5.677-5.824,5.677c-3.47,0-5.846-2.313-5.846-5.677
		c0-3.385,2.376-5.677,5.846-5.677C54.331,154.225,56.707,156.517,56.707,159.902z M47.455,159.923c0,2.166,1.409,3.638,3.428,3.638
		c1.998,0,3.406-1.472,3.406-3.638c0-2.145-1.409-3.616-3.406-3.616C48.864,156.307,47.455,157.778,47.455,159.923z"/>
	<path fill="#414042" d="M69.886,165.495h-2.418v-1.914c-0.799,1.304-2.145,2.019-3.932,2.019c-3.217,0-5.362-2.334-5.362-5.74
		c0-3.364,2.166-5.656,5.32-5.656c1.808,0,3.154,0.736,3.974,2.04v-6.35h2.418V165.495z M67.468,159.944
		c0-2.166-1.409-3.679-3.427-3.679s-3.428,1.535-3.449,3.679c0.021,2.124,1.409,3.638,3.449,3.638
		C66.059,163.582,67.468,162.068,67.468,159.944z"/>
	<path fill="#414042" d="M83.717,165.495h-2.418v-2.187c-0.757,1.556-2.166,2.25-3.995,2.271c-2.565,0-4.1-1.64-4.1-4.311v-6.959
		h2.418v6.287c0,1.682,0.988,2.712,2.607,2.712c1.935-0.042,3.07-1.535,3.07-3.49v-5.509h2.418V165.495z"/>
	<path fill="#414042" d="M96.497,156.054l-1.325,1.556c-0.778-0.799-1.851-1.283-3.196-1.262c-1.934,0-3.322,1.451-3.322,3.574
		c0,2.124,1.388,3.575,3.322,3.575c1.409,0,2.544-0.462,3.301-1.346l1.346,1.346c-1.009,1.325-2.628,2.082-4.752,2.082
		c-3.322,0-5.635-2.292-5.635-5.656c0-3.385,2.313-5.698,5.635-5.698C93.89,154.225,95.467,154.876,96.497,156.054z"/>
	<path fill="#414042" d="M105.471,164.78c-0.883,0.525-1.808,0.82-2.754,0.82c-1.682,0-3.133-0.967-3.133-3.259v-5.804h-1.577
		v-1.808h1.577v-3.07h2.397v3.07h3.301v1.808h-3.301v5.362c0,1.157,0.441,1.514,1.198,1.514c0.505,0,1.03-0.168,1.682-0.484
		L105.471,164.78z"/>
	<path fill="#414042" d="M110.305,151.113c0,0.841-0.61,1.451-1.409,1.451c-0.799,0-1.409-0.61-1.409-1.451
		c0-0.862,0.609-1.472,1.409-1.472C109.695,149.641,110.305,150.251,110.305,151.113z M107.697,165.495v-11.186h2.397v11.186
		H107.697z"/>
	<path fill="#414042" d="M124.286,159.902c0,3.364-2.376,5.677-5.824,5.677c-3.47,0-5.846-2.313-5.846-5.677
		c0-3.385,2.376-5.677,5.846-5.677C121.91,154.225,124.286,156.517,124.286,159.902z M115.034,159.923
		c0,2.166,1.409,3.638,3.428,3.638c1.998,0,3.406-1.472,3.406-3.638c0-2.145-1.409-3.616-3.406-3.616
		C116.443,156.307,115.034,157.778,115.034,159.923z"/>
	<path fill="#414042" d="M137.507,158.535v6.96h-2.418v-6.287c0-1.682-1.009-2.712-2.691-2.712
		c-1.851,0.021-3.007,1.304-3.175,3.049v5.951h-2.418v-11.186h2.418v2.145c0.799-1.556,2.229-2.229,4.121-2.229
		C135.951,154.225,137.507,155.865,137.507,158.535z"/>
</g>
<g>
	<path fill="#414042" d="M456.935,134.112c0,4.206-3.407,7.464-7.801,7.464s-7.801-3.259-7.801-7.464
		c0-4.226,3.406-7.422,7.801-7.422S456.935,129.907,456.935,134.112z M443.856,134.112c0,2.923,2.418,5.236,5.298,5.236
		c2.881,0,5.236-2.313,5.236-5.236s-2.355-5.193-5.236-5.193C446.253,128.918,443.856,131.189,443.856,134.112z"/>
	<path fill="#414042" d="M470.134,134.511v6.96h-2.418v-6.287c0-1.682-1.009-2.712-2.691-2.712
		c-1.851,0.021-3.007,1.304-3.175,3.049v5.951h-2.418v-11.186h2.418v2.145c0.799-1.556,2.229-2.229,4.121-2.229
		C468.578,130.201,470.134,131.841,470.134,134.511z"/>
	<path fill="#414042" d="M484.32,128.981v12.49h-2.481v-12.49h-4.646v-2.229h11.796v2.229H484.32z"/>
	<path fill="#414042" d="M493.568,127.089c0,0.841-0.61,1.451-1.409,1.451c-0.799,0-1.409-0.61-1.409-1.451
		c0-0.862,0.609-1.472,1.409-1.472C492.958,125.617,493.568,126.227,493.568,127.089z M490.961,141.471v-11.186h2.397v11.186
		H490.961z"/>
	<path fill="#414042" d="M515.623,134.511v6.96h-2.418v-6.287c0-1.703-1.01-2.733-2.649-2.733c-1.913,0.063-3.07,1.535-3.07,3.491
		v5.53h-2.418v-6.287c0-1.703-0.988-2.733-2.628-2.733c-1.935,0.063-3.112,1.535-3.112,3.491v5.53h-2.397v-11.186h2.397v2.166
		c0.778-1.577,2.208-2.25,4.059-2.25c1.997,0,3.364,0.988,3.89,2.691c0.715-1.871,2.208-2.691,4.247-2.691
		C514.088,130.201,515.623,131.841,515.623,134.511z"/>
	<path fill="#414042" d="M528.695,136.803h-8.453c0.379,1.724,1.703,2.796,3.47,2.796c1.22,0,2.334-0.462,3.154-1.303l1.282,1.367
		c-1.094,1.198-2.691,1.892-4.626,1.892c-3.448,0-5.719-2.292-5.719-5.656c0-3.385,2.334-5.677,5.656-5.698
		C527.392,130.201,528.989,132.766,528.695,136.803z M526.593,135.037c-0.084-1.808-1.283-2.902-3.112-2.902
		c-1.767,0-3.007,1.115-3.28,2.902H526.593z"/>
	<path fill="#414042" d="M442.849,153.778c4.416,0,7.611,3.091,7.611,7.359c0,4.248-3.217,7.359-7.675,7.359h-5.971v-14.719H442.849
		z M439.295,166.268h3.617c2.859,0,5.046-2.124,5.046-5.109c0-3.007-2.25-5.151-5.151-5.151h-3.512V166.268z"/>
	<path fill="#414042" d="M462.798,163.829h-8.453c0.379,1.724,1.703,2.796,3.47,2.796c1.219,0,2.334-0.462,3.154-1.303l1.283,1.367
		c-1.093,1.198-2.691,1.892-4.626,1.892c-3.448,0-5.719-2.292-5.719-5.656c0-3.385,2.334-5.677,5.656-5.698
		C461.494,157.227,463.092,159.792,462.798,163.829z M460.695,162.063c-0.084-1.809-1.283-2.902-3.112-2.902
		c-1.766,0-3.007,1.115-3.28,2.902H460.695z"/>
	<path fill="#414042" d="M465.422,168.497v-15.602h2.418v15.602H465.422z"/>
	<path fill="#414042" d="M474.125,154.115c0,0.841-0.61,1.451-1.409,1.451c-0.799,0-1.409-0.61-1.409-1.451
		c0-0.862,0.609-1.472,1.409-1.472C473.515,152.643,474.125,153.253,474.125,154.115z M471.518,168.497v-11.186h2.397v11.186
		H471.518z"/>
	<path fill="#414042" d="M480.053,168.497l-4.332-11.186h2.523l3.112,8.81l3.07-8.81h2.418l-4.29,11.186H480.053z"/>
	<path fill="#414042" d="M497.943,163.829h-8.453c0.379,1.724,1.703,2.796,3.47,2.796c1.219,0,2.334-0.462,3.154-1.303l1.283,1.367
		c-1.093,1.198-2.691,1.892-4.626,1.892c-3.448,0-5.719-2.292-5.719-5.656c0-3.385,2.334-5.677,5.656-5.698
		C496.64,157.227,498.237,159.792,497.943,163.829z M495.84,162.063c-0.084-1.809-1.283-2.902-3.112-2.902
		c-1.766,0-3.007,1.115-3.28,2.902H495.84z"/>
	<path fill="#414042" d="M502.88,159.54c0.757-1.514,2.103-2.312,3.869-2.312v2.312c-2.25-0.126-3.68,1.199-3.869,3.112v5.845
		h-2.418v-11.186h2.418V159.54z"/>
	<path fill="#414042" d="M511.352,154.115c0,0.841-0.609,1.451-1.409,1.451c-0.799,0-1.408-0.61-1.408-1.451
		c0-0.862,0.609-1.472,1.408-1.472C510.742,152.643,511.352,153.253,511.352,154.115z M508.744,168.497v-11.186h2.397v11.186
		H508.744z"/>
	<path fill="#414042" d="M524.555,163.829h-8.453c0.379,1.724,1.703,2.796,3.47,2.796c1.22,0,2.334-0.462,3.154-1.303l1.282,1.367
		c-1.094,1.198-2.691,1.892-4.626,1.892c-3.448,0-5.719-2.292-5.719-5.656c0-3.385,2.334-5.677,5.656-5.698
		C523.251,157.227,524.849,159.792,524.555,163.829z M522.452,162.063c-0.084-1.809-1.283-2.902-3.112-2.902
		c-1.767,0-3.007,1.115-3.28,2.902H522.452z"/>
	<path fill="#414042" d="M534.327,158.341l-0.883,1.787c-0.988-0.61-2.229-0.988-3.217-0.988c-0.946,0-1.641,0.315-1.641,1.114
		c0,2.061,5.951,0.946,5.93,5.004c0,2.292-2.039,3.322-4.289,3.322c-1.641,0-3.386-0.546-4.5-1.556l0.862-1.724
		c0.967,0.862,2.523,1.388,3.743,1.388c1.03,0,1.829-0.357,1.829-1.199c0-2.292-5.888-1.009-5.866-5.046
		c0-2.271,1.976-3.238,4.121-3.238C531.825,157.206,533.318,157.626,534.327,158.341z"/>
</g>
<g>
	<path fill="#414042" d="M637.396,126.752c3.701,0,5.824,1.83,5.824,5.025c0,3.322-2.123,5.257-5.824,5.257h-3.385v4.437h-2.481
		v-14.719H637.396z M634.011,134.806h3.279c2.271,0,3.554-0.967,3.554-2.965c0-1.934-1.282-2.859-3.554-2.859h-3.279V134.806z"/>
	<path fill="#414042" d="M655.369,136.803h-8.453c0.379,1.724,1.703,2.796,3.47,2.796c1.22,0,2.334-0.462,3.154-1.303l1.282,1.367
		c-1.094,1.198-2.691,1.892-4.626,1.892c-3.448,0-5.719-2.292-5.719-5.656c0-3.385,2.334-5.677,5.656-5.698
		C654.065,130.201,655.663,132.766,655.369,136.803z M653.267,135.037c-0.084-1.808-1.283-2.902-3.112-2.902
		c-1.767,0-3.007,1.115-3.28,2.902H653.267z"/>
	<path fill="#414042" d="M660.306,132.514c0.757-1.514,2.103-2.313,3.869-2.313v2.313c-2.25-0.126-3.68,1.199-3.869,3.112v5.845
		h-2.418v-11.186h2.418V132.514z"/>
	<path fill="#414042" d="M669.029,129.381v1.325h2.923v1.808h-2.923v8.958h-2.396v-8.958h-1.472v-1.808h1.472v-1.093
		c0-2.607,1.913-3.848,3.848-3.848c0.904,0,1.809,0.252,2.523,0.778l-0.926,1.85c-0.462-0.336-1.03-0.525-1.534-0.525
		C669.724,127.867,669.029,128.33,669.029,129.381z"/>
	<path fill="#414042" d="M683.01,136.803h-8.453c0.379,1.724,1.703,2.796,3.47,2.796c1.22,0,2.334-0.462,3.154-1.303l1.282,1.367
		c-1.094,1.198-2.691,1.892-4.626,1.892c-3.448,0-5.719-2.292-5.719-5.656c0-3.385,2.334-5.677,5.656-5.698
		C681.706,130.201,683.304,132.766,683.01,136.803z M680.907,135.037c-0.084-1.808-1.283-2.902-3.112-2.902
		c-1.767,0-3.007,1.115-3.28,2.902H680.907z"/>
	<path fill="#414042" d="M694.739,132.03l-1.325,1.556c-0.777-0.799-1.85-1.283-3.195-1.262c-1.935,0-3.322,1.451-3.322,3.574
		c0,2.124,1.388,3.575,3.322,3.575c1.408,0,2.544-0.462,3.301-1.346l1.346,1.346c-1.009,1.325-2.628,2.082-4.752,2.082
		c-3.322,0-5.635-2.292-5.635-5.656c0-3.385,2.312-5.698,5.635-5.698C692.132,130.201,693.709,130.853,694.739,132.03z"/>
	<path fill="#414042" d="M703.713,140.756c-0.883,0.525-1.809,0.82-2.755,0.82c-1.682,0-3.133-0.967-3.133-3.259v-5.804h-1.577
		v-1.808h1.577v-3.07h2.397v3.07h3.301v1.808h-3.301v5.362c0,1.157,0.441,1.514,1.198,1.514c0.505,0,1.03-0.168,1.683-0.484
		L703.713,140.756z"/>
	<path fill="#414042" d="M725.892,134.112c0,4.206-3.406,7.464-7.801,7.464s-7.801-3.259-7.801-7.464
		c0-4.226,3.406-7.422,7.801-7.422S725.892,129.907,725.892,134.112z M712.813,134.112c0,2.923,2.418,5.236,5.299,5.236
		c2.88,0,5.235-2.313,5.235-5.236s-2.355-5.193-5.235-5.193C715.21,128.918,712.813,131.189,712.813,134.112z"/>
	<path fill="#414042" d="M730.807,132.514c0.757-1.514,2.103-2.313,3.869-2.313v2.313c-2.25-0.126-3.68,1.199-3.869,3.112v5.845
		h-2.418v-11.186h2.418V132.514z"/>
	<path fill="#414042" d="M747.331,141.471h-2.419v-1.914c-0.799,1.304-2.145,2.019-3.932,2.019c-3.217,0-5.361-2.334-5.361-5.74
		c0-3.364,2.165-5.656,5.319-5.656c1.809,0,3.154,0.736,3.974,2.04v-6.35h2.419V141.471z M744.912,135.92
		c0-2.166-1.408-3.68-3.427-3.68s-3.428,1.535-3.448,3.68c0.021,2.124,1.408,3.637,3.448,3.637
		C743.504,139.558,744.912,138.044,744.912,135.92z"/>
	<path fill="#414042" d="M760.847,136.803h-8.453c0.379,1.724,1.703,2.796,3.47,2.796c1.22,0,2.334-0.462,3.154-1.303l1.282,1.367
		c-1.094,1.198-2.691,1.892-4.626,1.892c-3.448,0-5.719-2.292-5.719-5.656c0-3.385,2.334-5.677,5.655-5.698
		C759.543,130.201,761.141,132.766,760.847,136.803z M758.744,135.037c-0.084-1.808-1.283-2.902-3.112-2.902
		c-1.767,0-3.007,1.115-3.28,2.902H758.744z"/>
	<path fill="#414042" d="M765.783,132.514c0.757-1.514,2.103-2.313,3.869-2.313v2.313c-2.25-0.126-3.68,1.199-3.869,3.112v5.845
		h-2.418v-11.186h2.418V132.514z"/>
	<path fill="#414042" d="M650.06,156.007v4.247h6.686v2.208h-6.686v6.035h-2.481v-14.719h9.883l-0.021,2.229H650.06z"/>
	<path fill="#414042" d="M669.674,168.497h-2.418v-2.187c-0.757,1.556-2.166,2.25-3.995,2.271c-2.565,0-4.101-1.64-4.101-4.311
		v-6.959h2.418v6.287c0,1.682,0.988,2.712,2.607,2.712c1.935-0.042,3.07-1.535,3.07-3.49v-5.509h2.418V168.497z"/>
	<path fill="#414042" d="M673.349,168.497v-15.602h2.418v15.602H673.349z"/>
	<path fill="#414042" d="M679.907,156.638c0-2.67,1.977-3.848,3.848-3.848c0.757,0,1.493,0.168,2.082,0.505l-0.084,2.103
		c-0.652-0.294-1.346-0.483-1.935-0.483c-0.862,0-1.515,0.399-1.515,1.493v1.304h2.923v1.808h-2.923v8.979h-2.396v-8.979h-1.472
		v-1.808h1.472V156.638z M686.446,154.115c0-0.862,0.609-1.472,1.409-1.472c0.799,0,1.408,0.61,1.408,1.472
		c0,0.841-0.609,1.451-1.408,1.451C687.056,155.566,686.446,154.956,686.446,154.115z M689.054,157.311v11.186h-2.397v-11.186
		H689.054z"/>
	<path fill="#414042" d="M692.729,168.497v-15.602h2.418v15.602H692.729z"/>
	<path fill="#414042" d="M717.517,161.537v6.96h-2.418v-6.287c0-1.703-1.009-2.733-2.649-2.733
		c-1.913,0.063-3.069,1.535-3.069,3.491v5.53h-2.418v-6.287c0-1.703-0.988-2.733-2.629-2.733c-1.935,0.063-3.111,1.535-3.111,3.491
		v5.53h-2.397v-11.186h2.397v2.166c0.777-1.577,2.207-2.25,4.058-2.25c1.998,0,3.364,0.988,3.891,2.691
		c0.715-1.872,2.207-2.691,4.247-2.691C715.982,157.227,717.517,158.867,717.517,161.537z"/>
	<path fill="#414042" d="M730.589,163.829h-8.453c0.379,1.724,1.703,2.796,3.47,2.796c1.22,0,2.334-0.462,3.154-1.303l1.282,1.367
		c-1.094,1.198-2.691,1.892-4.626,1.892c-3.448,0-5.719-2.292-5.719-5.656c0-3.385,2.334-5.677,5.655-5.698
		C729.285,157.227,730.883,159.792,730.589,163.829z M728.486,162.063c-0.084-1.809-1.283-2.902-3.112-2.902
		c-1.767,0-3.007,1.115-3.28,2.902H728.486z"/>
	<path fill="#414042" d="M743.812,161.537v6.96h-2.419v-6.287c0-1.682-1.009-2.712-2.691-2.712c-1.85,0.021-3.007,1.304-3.175,3.049
		v5.951h-2.418v-11.186h2.418v2.145c0.799-1.556,2.229-2.229,4.121-2.229C742.255,157.227,743.812,158.867,743.812,161.537z"/>
	<path fill="#414042" d="M753.373,167.782c-0.883,0.525-1.809,0.82-2.755,0.82c-1.682,0-3.133-0.967-3.133-3.259v-5.804h-1.577
		v-1.808h1.577v-3.07h2.397v3.07h3.301v1.808h-3.301v5.362c0,1.157,0.441,1.514,1.198,1.514c0.505,0,1.03-0.168,1.683-0.484
		L753.373,167.782z"/>
</g>
<g>
	<path fill="#414042" d="M816.085,150.481v-6.098h-7.801v6.098h-2.481v-14.719h2.481v6.392h7.801v-6.392h2.48v14.719H816.085z"/>
	<path fill="#414042" d="M828.99,149.114c-0.8,0.988-2.082,1.472-3.701,1.472c-2.418,0-3.932-1.493-3.932-3.469
		c0-2.04,1.535-3.343,4.227-3.364h3.385v-0.336c0-1.409-0.904-2.25-2.67-2.25c-1.072,0-2.188,0.378-3.302,1.136l-0.988-1.682
		c1.557-0.925,2.691-1.409,4.815-1.409c2.881,0,4.5,1.472,4.521,3.932l0.021,7.338h-2.376V149.114z M828.969,146.549v-1.03h-3.027
		c-1.577,0-2.313,0.42-2.313,1.493c0,1.009,0.82,1.661,2.166,1.661C827.518,148.673,828.843,147.769,828.969,146.549z"/>
	<path fill="#414042" d="M846.375,144.93c0,3.343-2.103,5.635-5.299,5.635c-1.787,0-3.133-0.715-3.953-2.019v6.014h-2.418v-15.265
		h2.418v1.934c0.82-1.303,2.166-2.019,3.911-2.019C844.209,139.21,846.375,141.523,846.375,144.93z M843.936,144.846
		c0-2.082-1.409-3.617-3.406-3.617s-3.406,1.514-3.406,3.617c0,2.166,1.409,3.659,3.406,3.659S843.936,146.991,843.936,144.846z"/>
	<path fill="#414042" d="M860.668,144.93c0,3.343-2.103,5.635-5.299,5.635c-1.787,0-3.133-0.715-3.953-2.019v6.014h-2.418v-15.265
		h2.418v1.934c0.82-1.303,2.166-2.019,3.911-2.019C858.502,139.21,860.668,141.523,860.668,144.93z M858.229,144.846
		c0-2.082-1.409-3.617-3.406-3.617s-3.406,1.514-3.406,3.617c0,2.166,1.409,3.659,3.406,3.659S858.229,146.991,858.229,144.846z"/>
	<path fill="#414042" d="M867.161,152.016c-0.693,1.766-1.955,2.649-3.638,2.649c-1.009,0-1.808-0.294-2.586-0.946l1.03-1.872
		c0.525,0.378,0.946,0.547,1.451,0.547c0.735,0,1.324-0.4,1.703-1.241l0.378-0.841l-4.626-11.018h2.503l3.343,8.474l3.112-8.474
		h2.418L867.161,152.016z"/>
	<path fill="#414042" d="M891.609,137.97l-1.451,1.808c-1.072-1.156-2.607-1.871-4.1-1.871c-2.944,0-5.257,2.271-5.257,5.172
		s2.312,5.193,5.257,5.193c1.472,0,2.985-0.673,4.1-1.745l1.472,1.64c-1.492,1.472-3.616,2.418-5.698,2.418
		c-4.31,0-7.653-3.259-7.653-7.485c0-4.184,3.386-7.401,7.738-7.401C888.098,135.699,890.18,136.562,891.609,137.97z"/>
	<path fill="#414042" d="M904.158,150.481h-2.418v-2.187c-0.757,1.556-2.166,2.25-3.995,2.271c-2.565,0-4.101-1.64-4.101-4.311
		v-6.959h2.418v6.287c0,1.682,0.988,2.713,2.607,2.713c1.935-0.042,3.07-1.535,3.07-3.491v-5.509h2.418V150.481z"/>
	<path fill="#414042" d="M914.981,140.325l-0.883,1.787c-0.988-0.61-2.229-0.988-3.217-0.988c-0.946,0-1.641,0.315-1.641,1.115
		c0,2.061,5.951,0.946,5.93,5.004c0,2.292-2.039,3.322-4.289,3.322c-1.641,0-3.386-0.546-4.5-1.556l0.862-1.725
		c0.967,0.862,2.523,1.388,3.743,1.388c1.03,0,1.829-0.357,1.829-1.199c0-2.292-5.888-1.009-5.866-5.046
		c0-2.271,1.976-3.238,4.121-3.238C912.479,139.189,913.973,139.61,914.981,140.325z"/>
	<path fill="#414042" d="M923.936,149.766c-0.883,0.525-1.809,0.82-2.755,0.82c-1.682,0-3.133-0.967-3.133-3.259v-5.804h-1.577
		v-1.808h1.577v-3.07h2.397v3.07h3.301v1.808h-3.301v5.362c0,1.157,0.441,1.514,1.198,1.514c0.505,0,1.03-0.168,1.683-0.484
		L923.936,149.766z"/>
	<path fill="#414042" d="M936.654,144.888c0,3.364-2.376,5.677-5.824,5.677c-3.469,0-5.845-2.313-5.845-5.677
		c0-3.385,2.376-5.677,5.845-5.677C934.278,139.21,936.654,141.502,936.654,144.888z M927.403,144.909
		c0,2.166,1.408,3.638,3.427,3.638c1.998,0,3.406-1.472,3.406-3.638c0-2.145-1.408-3.616-3.406-3.616
		C928.812,141.292,927.403,142.764,927.403,144.909z"/>
	<path fill="#414042" d="M957.866,143.521v6.96h-2.418v-6.287c0-1.703-1.009-2.733-2.649-2.733
		c-1.913,0.063-3.069,1.535-3.069,3.491v5.53h-2.418v-6.287c0-1.703-0.988-2.733-2.629-2.733c-1.935,0.063-3.111,1.535-3.111,3.491
		v5.53h-2.397v-11.186h2.397v2.166c0.777-1.577,2.207-2.25,4.058-2.25c1.998,0,3.364,0.988,3.891,2.691
		c0.715-1.871,2.207-2.691,4.247-2.691C956.332,139.21,957.866,140.851,957.866,143.521z"/>
	<path fill="#414042" d="M970.938,145.813h-8.453c0.379,1.724,1.703,2.796,3.47,2.796c1.22,0,2.334-0.462,3.154-1.303l1.282,1.367
		c-1.094,1.198-2.691,1.892-4.626,1.892c-3.448,0-5.719-2.292-5.719-5.656c0-3.385,2.334-5.677,5.655-5.698
		C969.635,139.21,971.232,141.776,970.938,145.813z M968.836,144.047c-0.084-1.808-1.283-2.902-3.112-2.902
		c-1.767,0-3.007,1.115-3.28,2.902H968.836z"/>
	<path fill="#414042" d="M975.875,141.523c0.757-1.514,2.103-2.313,3.869-2.313v2.313c-2.25-0.126-3.68,1.199-3.869,3.112v5.845
		h-2.418v-11.186h2.418V141.523z"/>
</g>
</svg>
